<svg width="38" height="40" viewBox="0 0 38 40" fill="none" xmlns="http://www.w3.org/2000/svg">
    <path fill-rule="evenodd" clip-rule="evenodd" d="M3.01876 2.94856C0.610534 5.24675 0.610535 8.94559 0.610535 16.3433V24.1898C0.610535 31.5874 0.610534 35.2864 3.01876 37.5845C5.42701 39.8827 9.30299 39.8827 17.055 39.8827H21.1661C28.918 39.8827 32.7942 39.8827 35.2022 37.5845C37.6105 35.2864 37.6105 31.5874 37.6105 24.1898V16.3433C37.6105 8.94559 37.6105 5.24675 35.2022 2.94856C32.7942 0.650391 28.918 0.650391 21.1661 0.650391H17.055C9.30299 0.650391 5.42701 0.650391 3.01876 2.94856ZM10.8883 14.8721C10.0369 14.8721 9.34665 15.5308 9.34665 16.3433C9.34665 17.1558 10.0369 17.8145 10.8883 17.8145H27.3328C28.1842 17.8145 28.8744 17.1558 28.8744 16.3433C28.8744 15.5308 28.1842 14.8721 27.3328 14.8721H10.8883ZM10.8883 22.7186C10.0369 22.7186 9.34665 23.3773 9.34665 24.1898C9.34665 25.0023 10.0369 25.661 10.8883 25.661H21.1661C22.0175 25.661 22.7078 25.0023 22.7078 24.1898C22.7078 23.3773 22.0175 22.7186 21.1661 22.7186H10.8883Z" fill="white"/>
</svg>
