<svg width="38" height="39" viewBox="0 0 38 39" fill="none" xmlns="http://www.w3.org/2000/svg">
    <g clip-path="url(#clip0_340_116)">
        <path d="M36.6937 16.8954L33.25 13.4335V4.94968C33.25 3.63565 32.1813 2.56053 30.875 2.56053H28.5C27.1938 2.56053 26.125 3.63565 26.125 4.94968V6.27088L21.375 1.49736C20.7266 0.880963 20.1329 0.171387 19 0.171387C17.8671 0.171387 17.2734 0.880963 16.625 1.49736L1.30625 16.8954C0.56525 17.6719 0 18.2381 0 19.2846C0 20.6297 1.026 21.6737 2.375 21.6737H4.75V36.0086C4.75 37.3226 5.81875 38.3977 7.125 38.3977H14.25V26.452C14.25 25.138 15.3188 24.0629 16.625 24.0629H21.375C22.6812 24.0629 23.75 25.138 23.75 26.452V38.3977H30.875C32.1813 38.3977 33.25 37.3226 33.25 36.0086V21.6737H35.625C36.974 21.6737 38 20.6297 38 19.2846C38 18.2381 37.4347 17.6719 36.6937 16.8954Z" fill="white"/>
    </g>
    <defs>
        <clipPath id="clip0_340_116">
            <rect width="38" height="38.2264" fill="white" transform="translate(0 0.171387)"/>
        </clipPath>
    </defs>
</svg>
