<svg width="28" height="29" viewBox="0 0 28 29" fill="none" xmlns="http://www.w3.org/2000/svg">
    <path fill-rule="evenodd" clip-rule="evenodd" d="M18.8716 11.3264C18.8716 16.025 15.2203 19.6527 10.9358 19.6527C6.65133 19.6527 3 16.025 3 11.3264C3 6.62774 6.65133 3 10.9358 3C15.2203 3 18.8716 6.62774 18.8716 11.3264ZM17.5566 20.3418C15.7188 21.7918 13.4244 22.6527 10.9358 22.6527C4.89612 22.6527 0 17.5817 0 11.3264C0 5.07098 4.89612 0 10.9358 0C16.9755 0 21.8716 5.07098 21.8716 11.3264C21.8716 13.9038 21.0403 16.2802 19.6404 18.1836L27.3726 26.192C27.948 26.7879 27.948 27.7542 27.3726 28.3502C26.7972 28.9461 25.8642 28.9461 25.2888 28.3502L17.5566 20.3418Z" fill="white"/>
</svg>
