<svg width="1254" height="951" viewBox="0 0 1254 951" fill="none" xmlns="http://www.w3.org/2000/svg">
    <g filter="url(#filter0_d_791_35)">
        <rect x="19" y="19" width="1214" height="466" fill="#466874"/>
        <rect x="196.086" y="135.986" width="154.086" height="116.986" transform="rotate(-180 196.086 135.986)" fill="#648794" fill-opacity="0.05" style="mix-blend-mode:lighten"/>
        <rect x="504.259" y="135.986" width="154.086" height="116.986" transform="rotate(-180 504.259 135.986)" fill="#648794" fill-opacity="0.05" style="mix-blend-mode:lighten"/>
        <rect x="196.086" y="484.694" width="154.086" height="116.986" transform="rotate(-180 196.086 484.694)" fill="#648794" fill-opacity="0.05" style="mix-blend-mode:lighten"/>
        <rect x="196.086" y="252.972" width="154.086" height="116.986" transform="rotate(-180 196.086 252.972)" fill="#648794" fill-opacity="0.05" style="mix-blend-mode:lighten"/>
        <rect x="504.259" y="369.958" width="154.086" height="116.986" transform="rotate(-180 504.259 369.958)" fill="#648794" fill-opacity="0.05" style="mix-blend-mode:lighten"/>
        <rect x="812.432" y="135.986" width="154.086" height="116.986" transform="rotate(-180 812.432 135.986)" fill="#648794" fill-opacity="0.05" style="mix-blend-mode:lighten"/>
        <rect x="350.173" y="252.972" width="154.086" height="116.986" transform="rotate(-180 350.173 252.972)" fill="#89AEBC" fill-opacity="0.05"/>
        <rect x="504.259" y="252.972" width="154.086" height="116.986" transform="rotate(-180 504.259 252.972)" fill="#89AEBC" fill-opacity="0.05"/>
        <rect x="196.086" y="367.708" width="154.086" height="116.986" transform="rotate(-180 196.086 367.708)" fill="#89AEBC" fill-opacity="0.05"/>
        <rect x="350.173" y="484.694" width="154.086" height="116.986" transform="rotate(-180 350.173 484.694)" fill="#89AEBC" fill-opacity="0.05"/>
        <rect x="350.173" y="252.972" width="154.086" height="116.986" transform="rotate(-180 350.173 252.972)" fill="#89AEBC" fill-opacity="0.05"/>
        <rect x="658.346" y="135.986" width="154.086" height="116.986" transform="rotate(-180 658.346 135.986)" fill="#89AEBC" fill-opacity="0.05"/>
        <rect x="350.173" y="135.986" width="154.086" height="116.986" transform="rotate(-180 350.173 135.986)" fill="#5F9DB4" fill-opacity="0.05"/>
        <rect x="350.173" y="369.958" width="154.086" height="116.986" transform="rotate(-180 350.173 369.958)" fill="#5F9DB4" fill-opacity="0.05"/>
        <rect x="1046.39" y="425.774" width="77.6055" height="58.9199" fill="#648794" fill-opacity="0.05" style="mix-blend-mode:lighten"/>
        <rect x="891.184" y="425.774" width="77.6055" height="58.9199" fill="#648794" fill-opacity="0.05" style="mix-blend-mode:lighten"/>
        <rect x="1046.39" y="250.147" width="77.6055" height="58.9199" fill="#648794" fill-opacity="0.05" style="mix-blend-mode:lighten"/>
        <rect x="1046.39" y="366.854" width="77.6055" height="58.9199" fill="#648794" fill-opacity="0.05" style="mix-blend-mode:lighten"/>
        <rect x="891.184" y="307.934" width="77.6055" height="58.9199" fill="#648794" fill-opacity="0.05" style="mix-blend-mode:lighten"/>
        <rect x="735.973" y="425.774" width="77.6055" height="58.9199" fill="#648794" fill-opacity="0.05" style="mix-blend-mode:lighten"/>
        <rect x="968.789" y="366.854" width="77.6055" height="58.9199" fill="#89AEBC" fill-opacity="0.05"/>
        <rect x="891.184" y="366.854" width="77.6055" height="58.9199" fill="#89AEBC" fill-opacity="0.05"/>
        <rect x="1046.39" y="309.067" width="77.6055" height="58.9199" fill="#89AEBC" fill-opacity="0.05"/>
        <rect x="968.789" y="250.147" width="77.6055" height="58.9199" fill="#89AEBC" fill-opacity="0.05"/>
        <rect x="968.789" y="366.854" width="77.6055" height="58.9199" fill="#89AEBC" fill-opacity="0.05"/>
        <rect x="813.578" y="425.774" width="77.6055" height="58.9199" fill="#89AEBC" fill-opacity="0.05"/>
        <rect x="968.789" y="425.774" width="77.6055" height="58.9199" fill="#5F9DB4" fill-opacity="0.05"/>
        <rect x="968.789" y="307.934" width="77.6055" height="58.9199" fill="#5F9DB4" fill-opacity="0.05"/>
    </g>
    <rect width="1214" height="466.496" transform="matrix(1 0 0 -1 19 951)" fill="#466874"/>
    <rect width="172.884" height="117.187" transform="matrix(-1 0 0 1 191.885 833.813)" fill="#648794" fill-opacity="0.05" style="mix-blend-mode:lighten"/>
    <rect width="172.884" height="117.187" transform="matrix(-1 0 0 1 537.652 833.813)" fill="#648794" fill-opacity="0.05" style="mix-blend-mode:lighten"/>
    <rect width="172.884" height="117.187" transform="matrix(-1 0 0 1 191.885 484.504)" fill="#648794" fill-opacity="0.05" style="mix-blend-mode:lighten"/>
    <rect width="172.884" height="117.187" transform="matrix(-1 0 0 1 191.885 716.625)" fill="#648794" fill-opacity="0.05" style="mix-blend-mode:lighten"/>
    <rect width="172.884" height="117.187" transform="matrix(-1 0 0 1 537.652 599.438)" fill="#648794" fill-opacity="0.05" style="mix-blend-mode:lighten"/>
    <rect width="172.884" height="117.187" transform="matrix(-1 0 0 1 883.421 833.813)" fill="#648794" fill-opacity="0.05" style="mix-blend-mode:lighten"/>
    <rect width="172.884" height="117.187" transform="matrix(-1 0 0 1 364.769 716.625)" fill="#89AEBC" fill-opacity="0.05"/>
    <rect width="172.884" height="117.187" transform="matrix(-1 0 0 1 537.652 716.625)" fill="#89AEBC" fill-opacity="0.05"/>
    <rect width="172.884" height="117.187" transform="matrix(-1 0 0 1 191.885 601.692)" fill="#89AEBC" fill-opacity="0.05"/>
    <rect width="172.884" height="117.187" transform="matrix(-1 0 0 1 364.671 485)" fill="#89AEBC" fill-opacity="0.05"/>
    <rect width="172.884" height="117.187" transform="matrix(-1 0 0 1 364.769 716.625)" fill="#89AEBC" fill-opacity="0.05"/>
    <rect width="172.884" height="117.187" transform="matrix(-1 0 0 1 710.537 833.813)" fill="#89AEBC" fill-opacity="0.05"/>
    <rect width="172.884" height="117.187" transform="matrix(-1 0 0 1 364.769 833.813)" fill="#5F9DB4" fill-opacity="0.05"/>
    <rect width="172.884" height="117.187" transform="matrix(-1 0 0 1 364.671 599)" fill="#5F9DB4" fill-opacity="0.05"/>
    <rect width="87.0731" height="59.0213" transform="matrix(1 0 0 -1 1145.93 543.526)" fill="#648794" fill-opacity="0.05" style="mix-blend-mode:lighten"/>
    <rect width="87.0731" height="59.0213" transform="matrix(1 0 0 -1 971.781 543.526)" fill="#648794" fill-opacity="0.05" style="mix-blend-mode:lighten"/>
    <rect width="87.0731" height="59.0213" transform="matrix(1 0 0 -1 1145.93 719.455)" fill="#648794" fill-opacity="0.05" style="mix-blend-mode:lighten"/>
    <rect width="87.0731" height="59.0213" transform="matrix(1 0 0 -1 1145.93 602.547)" fill="#648794" fill-opacity="0.05" style="mix-blend-mode:lighten"/>
    <rect width="87.0731" height="59.0213" transform="matrix(1 0 0 -1 971.781 661.568)" fill="#648794" fill-opacity="0.05" style="mix-blend-mode:lighten"/>
    <rect width="87.0731" height="59.0213" transform="matrix(1 0 0 -1 797.635 543.525)" fill="#648794" fill-opacity="0.05" style="mix-blend-mode:lighten"/>
    <rect width="87.0731" height="59.0213" transform="matrix(1 0 0 -1 1058.85 602.547)" fill="#89AEBC" fill-opacity="0.05"/>
    <rect width="87.0731" height="59.0213" transform="matrix(1 0 0 -1 971.781 602.547)" fill="#89AEBC" fill-opacity="0.05"/>
    <rect width="87.0731" height="59.0213" transform="matrix(1 0 0 -1 1145.93 660.433)" fill="#89AEBC" fill-opacity="0.05"/>
    <rect width="87.0731" height="59.0213" transform="matrix(1 0 0 -1 1058.85 719.455)" fill="#89AEBC" fill-opacity="0.05"/>
    <rect width="87.0731" height="59.0213" transform="matrix(1 0 0 -1 1058.85 602.547)" fill="#89AEBC" fill-opacity="0.05"/>
    <rect width="87.0731" height="59.0213" transform="matrix(1 0 0 -1 884.708 543.526)" fill="#89AEBC" fill-opacity="0.05"/>
    <rect width="87.0731" height="59.0213" transform="matrix(1 0 0 -1 1058.85 543.526)" fill="#5F9DB4" fill-opacity="0.05"/>
    <rect width="87.0731" height="59.0213" transform="matrix(1 0 0 -1 1058.85 661.568)" fill="#5F9DB4" fill-opacity="0.05"/>
    <defs>
        <filter id="filter0_d_791_35" x="0" y="-3.05176e-05" width="1254" height="506" filterUnits="userSpaceOnUse" color-interpolation-filters="sRGB">
            <feFlood flood-opacity="0" result="BackgroundImageFix"/>
            <feColorMatrix in="SourceAlpha" type="matrix" values="0 0 0 0 0 0 0 0 0 0 0 0 0 0 0 0 0 0 127 0" result="hardAlpha"/>
            <feOffset dx="1" dy="1"/>
            <feGaussianBlur stdDeviation="10"/>
            <feComposite in2="hardAlpha" operator="out"/>
            <feColorMatrix type="matrix" values="0 0 0 0 0.0666667 0 0 0 0 0 0 0 0 0 0 0 0 0 0.26 0"/>
            <feBlend mode="overlay" in2="BackgroundImageFix" result="effect1_dropShadow_791_35"/>
            <feBlend mode="normal" in="SourceGraphic" in2="effect1_dropShadow_791_35" result="shape"/>
        </filter>
    </defs>
</svg>
