<svg width="29" height="29" viewBox="0 0 29 29" fill="none" xmlns="http://www.w3.org/2000/svg">
    <path d="M14.0854 0.286142C14.0435 0.29081 13.9001 0.307148 13.7655 0.32115C12.2213 0.477522 10.6109 1.14502 9.35349 2.14859C8.83948 2.55703 8.17547 3.23386 7.79383 3.73798C6.22976 5.80115 5.55251 8.39178 5.90327 10.9731C6.20329 13.1809 7.23571 15.2138 8.79095 16.6631C9.102 16.9525 9.541 17.3049 9.84543 17.515L10.0506 17.655L9.93367 17.683C9.62041 17.76 8.89243 17.9748 8.54829 18.0938C4.87085 19.3494 2.15966 21.667 1.08091 24.4723C0.750012 25.3336 0.5625 26.3115 0.5625 27.182C0.5625 27.4271 0.635299 28.671 0.663977 28.9021L0.675007 29.0024H14.681H28.687L28.6981 28.9021C28.7267 28.6734 28.7995 27.4294 28.7995 27.1937C28.7995 26.4562 28.6672 25.6346 28.4311 24.9064C27.4693 21.9284 24.7559 19.4778 20.9351 18.1381C20.5115 17.9888 19.6975 17.7414 19.4681 17.6947C19.4262 17.6854 19.3776 17.6714 19.3622 17.662C19.3468 17.6527 19.4526 17.5617 19.649 17.4193C20.4784 16.8265 21.1733 16.1263 21.7668 15.2908C21.9807 14.9897 22.1749 14.6793 22.2984 14.4482C22.3513 14.3479 22.444 14.1752 22.5014 14.0655C22.6514 13.7901 22.8587 13.3 23.0065 12.8822C23.5404 11.3535 23.6838 9.67542 23.4169 8.03235C23.2536 7.02644 22.883 5.93184 22.3999 5.02396C22.2146 4.67854 21.8506 4.1114 21.5947 3.77299C21.2903 3.36922 20.6218 2.66205 20.2402 2.33997C19.9313 2.07858 19.3887 1.68882 19.082 1.50444C18.2504 1.00732 17.3415 0.645563 16.4127 0.447182C15.8612 0.328152 15.5083 0.293144 14.8134 0.283808C14.456 0.27914 14.1273 0.281475 14.0854 0.286142Z" fill="white"/>
</svg>
