<svg width="37" height="39" viewBox="0 0 37 39" fill="none" xmlns="http://www.w3.org/2000/svg">
    <g clip-path="url(#clip0_340_125)">
        <path d="M34.4488 32.2019H33.7067V15.085H33.7061C32.7957 15.085 31.933 14.7864 31.214 14.2818C30.7313 14.6234 30.1749 14.8768 29.5592 15.0004C29.2754 15.0567 28.9884 15.085 28.7057 15.085C27.7803 15.085 26.9188 14.7776 26.201 14.2695C25.6019 14.6925 24.9002 14.9864 24.1177 15.0653C23.9788 15.0781 23.8422 15.085 23.7048 15.085C22.7753 15.085 21.9203 14.7834 21.2094 14.2847C20.4996 14.7852 19.6393 15.085 18.7081 15.085C17.7763 15.085 16.9165 14.7858 16.2067 14.2847C15.4958 14.7835 14.6407 15.085 13.7107 15.085C13.5733 15.085 13.4366 15.0782 13.274 15.0631C12.5158 14.9871 11.8159 14.7023 11.2081 14.273C10.4921 14.7795 9.63287 15.085 8.70977 15.085C8.42837 15.085 8.14182 15.0567 7.85411 14.9999C7.23885 14.8768 6.68362 14.6234 6.20099 14.2823C5.48254 14.7864 4.62056 15.085 3.70945 15.085H3.70886V32.2019H2.96687C1.99594 32.2019 1.20874 32.9937 1.20874 33.9705C1.20874 34.9472 1.99594 35.739 2.96687 35.739H21.1501V32.2019V22.335C21.1501 21.3449 21.9475 20.5421 22.9323 20.5421H29.1821C30.1669 20.5421 30.965 21.3449 30.965 22.335V32.2019V35.7391H34.4488C35.4197 35.7391 36.2068 34.9472 36.2068 33.9705C36.2068 32.9937 35.4197 32.2019 34.4488 32.2019ZM18.0473 18.4353V26.1609C18.0473 26.6243 17.6736 26.9996 17.2135 26.9996H7.89626C7.43558 26.9996 7.06254 26.6243 7.06254 26.1609V25.187L15.6908 17.5961H17.2137C17.6736 17.5961 18.0473 17.9719 18.0473 18.4353ZM13.9235 17.5961L7.06254 23.632V21.8234L11.8703 17.5961H13.9235ZM7.06247 18.4353C7.06247 17.9719 7.4355 17.5961 7.89618 17.5961H10.1023L7.06247 20.2689V18.4353Z" fill="white"/>
        <path d="M1.31315 9.96407C0.918237 11.2947 1.67012 12.6955 2.99344 13.0934C3.2321 13.1647 3.47316 13.1995 3.71007 13.1995C4.78601 13.1995 5.78004 12.4936 6.10417 11.4031L6.23505 10.9629C6.32386 11.7639 6.7897 12.4762 7.48512 12.8723C7.70873 13 7.95393 13.0968 8.22021 13.1502C8.38511 13.1833 8.54891 13.1995 8.71098 13.1995C9.87848 13.1995 10.9228 12.3713 11.1597 11.1746L11.2215 10.8655C11.282 11.7192 11.7744 12.4659 12.494 12.8723C12.7846 13.0365 13.1075 13.1508 13.4603 13.1862C13.5445 13.1949 13.6281 13.1989 13.7112 13.1989C14.9803 13.1989 16.0678 12.2302 16.1958 10.9327L16.2142 10.7478C16.2372 11.6631 16.7499 12.4484 17.4937 12.8695C17.8546 13.0731 18.264 13.1989 18.708 13.1989C19.1514 13.1989 19.5618 13.0731 19.9223 12.8689C20.6668 12.4477 21.1793 11.6612 21.2018 10.7448L21.2202 10.9327C21.3488 12.2303 22.4357 13.1989 23.7053 13.1989C23.7879 13.1989 23.8715 13.1949 23.9555 13.1862C24.3085 13.1508 24.632 13.0371 24.9214 12.8729C25.6416 12.4669 26.1334 11.721 26.1951 10.8677L26.2556 11.1746C26.4927 12.3713 27.5369 13.1995 28.7044 13.1995C28.8664 13.1995 29.0308 13.1833 29.1957 13.1502C29.462 13.0969 29.7071 13 29.9303 12.8723C30.625 12.4762 31.0915 11.7639 31.1809 10.9629L31.3112 11.4031C31.6354 12.4942 32.6299 13.1995 33.706 13.1995C33.943 13.1995 34.184 13.1647 34.4226 13.0934C35.7459 12.6955 36.4972 11.2947 36.1029 9.96407L33.9613 2.75254C33.5917 1.50833 32.4541 0.655762 31.1636 0.655762H6.25228C4.96195 0.655762 3.82424 1.50833 3.45463 2.75254L1.31315 9.96407Z" fill="white"/>
        <path d="M23.4276 27.6626C22.892 27.6626 22.4578 28.0994 22.4578 28.6382C22.4578 29.1777 22.892 29.6139 23.4276 29.6139C23.9639 29.6139 24.3975 29.1777 24.3975 28.6382C24.3975 28.0994 23.9639 27.6626 23.4276 27.6626Z" fill="white"/>
    </g>
    <defs>
        <clipPath id="clip0_340_125">
            <rect width="36.1787" height="37.9981" fill="white" transform="translate(0.150391 0.422852)"/>
        </clipPath>
    </defs>
</svg>
